<?xml version="1.0" encoding="UTF-8" standalone="no"?>
<!DOCTYPE svg PUBLIC "-//W3C//DTD SVG 1.1//EN"
 "http://www.w3.org/Graphics/SVG/1.1/DTD/svg11.dtd">
<!-- Generated by graphviz version 2.43.0 (0)
 -->
<!-- Title: sourcetree Pages: 1 -->
<svg width="732pt" height="260pt"
 viewBox="0.00 0.00 732.00 260.00" xmlns="http://www.w3.org/2000/svg" xmlns:xlink="http://www.w3.org/1999/xlink">
<g id="graph0" class="graph" transform="scale(1 1) rotate(0) translate(4 256)">
<title>sourcetree</title>
<polygon fill="white" stroke="transparent" points="-4,4 -4,-256 728,-256 728,4 -4,4"/>
<!-- MulleObjCStandardFoundation&#45;startup -->
<g id="node1" class="node">
<title>MulleObjCStandardFoundation&#45;startup</title>
<polygon fill="yellow" stroke="black" points="509,-252 213,-252 213,-216 509,-216 509,-252"/>
<text text-anchor="middle" x="361" y="-230.3" font-family="Times,serif" font-size="14.00">MulleObjCStandardFoundation&#45;startup</text>
</g>
<!-- mulle&#45;atinit -->
<g id="node2" class="node">
<title>mulle&#45;atinit</title>
<polygon fill="lightgrey" stroke="black" points="223.5,-180 124.5,-180 124.5,-144 223.5,-144 223.5,-180"/>
<text text-anchor="middle" x="174" y="-158.3" font-family="Times,serif" font-size="14.00">mulle&#45;atinit</text>
</g>
<!-- MulleObjCStandardFoundation&#45;startup&#45;&gt;mulle&#45;atinit -->
<g id="edge7" class="edge">
<title>MulleObjCStandardFoundation&#45;startup&#45;&gt;mulle&#45;atinit</title>
<path fill="none" stroke="black" d="M315.25,-215.88C289.24,-206.14 256.47,-193.87 229.05,-183.61"/>
<polygon fill="black" stroke="black" points="230.19,-180.3 219.6,-180.07 227.74,-186.85 230.19,-180.3"/>
</g>
<!-- MulleObjCStandardFoundation -->
<g id="node5" class="node">
<title>MulleObjCStandardFoundation</title>
<polygon fill="lightgrey" stroke="black" points="480.5,-180 241.5,-180 241.5,-144 480.5,-144 480.5,-180"/>
<text text-anchor="middle" x="361" y="-158.3" font-family="Times,serif" font-size="14.00">MulleObjCStandardFoundation</text>
</g>
<!-- MulleObjCStandardFoundation&#45;startup&#45;&gt;MulleObjCStandardFoundation -->
<g id="edge8" class="edge">
<title>MulleObjCStandardFoundation&#45;startup&#45;&gt;MulleObjCStandardFoundation</title>
<path fill="none" stroke="black" d="M361,-215.7C361,-207.98 361,-198.71 361,-190.11"/>
<polygon fill="black" stroke="black" points="364.5,-190.1 361,-180.1 357.5,-190.1 364.5,-190.1"/>
</g>
<!-- mulle&#45;atexit -->
<g id="node9" class="node">
<title>mulle&#45;atexit</title>
<polygon fill="lightgrey" stroke="black" points="601,-180 499,-180 499,-144 601,-144 601,-180"/>
<text text-anchor="middle" x="550" y="-158.3" font-family="Times,serif" font-size="14.00">mulle&#45;atexit</text>
</g>
<!-- MulleObjCStandardFoundation&#45;startup&#45;&gt;mulle&#45;atexit -->
<g id="edge6" class="edge">
<title>MulleObjCStandardFoundation&#45;startup&#45;&gt;mulle&#45;atexit</title>
<path fill="none" stroke="black" d="M407.23,-215.88C433.53,-206.14 466.64,-193.87 494.36,-183.61"/>
<polygon fill="black" stroke="black" points="495.75,-186.82 503.92,-180.07 493.32,-180.26 495.75,-186.82"/>
</g>
<!-- mulle&#45;dlfcn -->
<g id="node3" class="node">
<title>mulle&#45;dlfcn</title>
<polygon fill="lightgrey" stroke="black" points="98,-108 2,-108 2,-72 98,-72 98,-108"/>
<text text-anchor="middle" x="50" y="-86.3" font-family="Times,serif" font-size="14.00">mulle&#45;dlfcn</text>
</g>
<!-- mulle&#45;atinit&#45;&gt;mulle&#45;dlfcn -->
<g id="edge1" class="edge">
<title>mulle&#45;atinit&#45;&gt;mulle&#45;dlfcn</title>
<path fill="none" stroke="black" d="M143.67,-143.88C127.3,-134.64 106.92,-123.13 89.35,-113.21"/>
<polygon fill="black" stroke="black" points="90.88,-110.06 80.45,-108.19 87.44,-116.15 90.88,-110.06"/>
</g>
<!-- dlfcn&#45;win32 -->
<g id="node4" class="node">
<title>dlfcn&#45;win32</title>
<polygon fill="lightgrey" stroke="black" points="100,-36 0,-36 0,0 100,0 100,-36"/>
<text text-anchor="middle" x="50" y="-14.3" font-family="Times,serif" font-size="14.00">dlfcn&#45;win32</text>
</g>
<!-- mulle&#45;dlfcn&#45;&gt;dlfcn&#45;win32 -->
<g id="edge2" class="edge">
<title>mulle&#45;dlfcn&#45;&gt;dlfcn&#45;win32</title>
<path fill="none" stroke="black" d="M50,-71.7C50,-63.98 50,-54.71 50,-46.11"/>
<polygon fill="black" stroke="black" points="53.5,-46.1 50,-36.1 46.5,-46.1 53.5,-46.1"/>
</g>
<!-- MulleObjCContainerFoundation -->
<g id="node6" class="node">
<title>MulleObjCContainerFoundation</title>
<polygon fill="lightgrey" stroke="black" points="359.5,-108 116.5,-108 116.5,-72 359.5,-72 359.5,-108"/>
<text text-anchor="middle" x="238" y="-86.3" font-family="Times,serif" font-size="14.00">MulleObjCContainerFoundation</text>
</g>
<!-- MulleObjCStandardFoundation&#45;&gt;MulleObjCContainerFoundation -->
<g id="edge3" class="edge">
<title>MulleObjCStandardFoundation&#45;&gt;MulleObjCContainerFoundation</title>
<path fill="none" stroke="black" d="M330.91,-143.88C314.68,-134.64 294.46,-123.13 277.03,-113.21"/>
<polygon fill="black" stroke="black" points="278.63,-110.09 268.2,-108.19 275.16,-116.18 278.63,-110.09"/>
</g>
<!-- MulleObjCValueFoundation -->
<g id="node7" class="node">
<title>MulleObjCValueFoundation</title>
<polygon fill="lightgrey" stroke="black" points="590,-108 378,-108 378,-72 590,-72 590,-108"/>
<text text-anchor="middle" x="484" y="-86.3" font-family="Times,serif" font-size="14.00">MulleObjCValueFoundation</text>
</g>
<!-- MulleObjCStandardFoundation&#45;&gt;MulleObjCValueFoundation -->
<g id="edge4" class="edge">
<title>MulleObjCStandardFoundation&#45;&gt;MulleObjCValueFoundation</title>
<path fill="none" stroke="black" d="M391.09,-143.88C407.32,-134.64 427.54,-123.13 444.97,-113.21"/>
<polygon fill="black" stroke="black" points="446.84,-116.18 453.8,-108.19 443.37,-110.09 446.84,-116.18"/>
</g>
<!-- mulle&#45;unicode -->
<g id="node8" class="node">
<title>mulle&#45;unicode</title>
<polygon fill="lightgrey" stroke="black" points="724,-108 608,-108 608,-72 724,-72 724,-108"/>
<text text-anchor="middle" x="666" y="-86.3" font-family="Times,serif" font-size="14.00">mulle&#45;unicode</text>
</g>
<!-- MulleObjCStandardFoundation&#45;&gt;mulle&#45;unicode -->
<g id="edge5" class="edge">
<title>MulleObjCStandardFoundation&#45;&gt;mulle&#45;unicode</title>
<path fill="none" stroke="black" d="M440.2,-143.97C484.11,-134.39 539.93,-121.97 598.17,-108.17"/>
<polygon fill="black" stroke="black" points="599,-111.57 607.92,-105.85 597.38,-104.76 599,-111.57"/>
</g>
<!-- MulleObjC -->
<g id="node10" class="node">
<title>MulleObjC</title>
<polygon fill="lightgrey" stroke="black" points="530,-36 438,-36 438,0 530,0 530,-36"/>
<text text-anchor="middle" x="484" y="-14.3" font-family="Times,serif" font-size="14.00">MulleObjC</text>
</g>
<!-- MulleObjCValueFoundation&#45;&gt;MulleObjC -->
<g id="edge9" class="edge">
<title>MulleObjCValueFoundation&#45;&gt;MulleObjC</title>
<path fill="none" stroke="black" d="M484,-71.7C484,-63.98 484,-54.71 484,-46.11"/>
<polygon fill="black" stroke="black" points="487.5,-46.1 484,-36.1 480.5,-46.1 487.5,-46.1"/>
</g>
</g>
</svg>
