<?xml version="1.0" encoding="UTF-8" standalone="no"?>
<!DOCTYPE svg PUBLIC "-//W3C//DTD SVG 1.1//EN"
 "http://www.w3.org/Graphics/SVG/1.1/DTD/svg11.dtd">
<!-- Generated by graphviz version 2.43.0 (0)
 -->
<!-- Title: sourcetree Pages: 1 -->
<svg width="958pt" height="260pt"
 viewBox="0.00 0.00 958.00 260.00" xmlns="http://www.w3.org/2000/svg" xmlns:xlink="http://www.w3.org/1999/xlink">
<g id="graph0" class="graph" transform="scale(1 1) rotate(0) translate(4 256)">
<title>sourcetree</title>
<polygon fill="white" stroke="transparent" points="-4,4 -4,-256 954,-256 954,4 -4,4"/>
<!-- MulleObjCStandardFoundation&#45;startup -->
<g id="node1" class="node">
<title>MulleObjCStandardFoundation&#45;startup</title>
<polygon fill="yellow" stroke="black" points="630,-252 334,-252 334,-216 630,-216 630,-252"/>
<text text-anchor="middle" x="482" y="-230.3" font-family="Times,serif" font-size="14.00">MulleObjCStandardFoundation&#45;startup</text>
</g>
<!-- mulle&#45;atinit -->
<g id="node2" class="node">
<title>mulle&#45;atinit</title>
<polygon fill="lightgrey" stroke="black" points="222.5,-180 123.5,-180 123.5,-144 222.5,-144 222.5,-180"/>
<text text-anchor="middle" x="173" y="-158.3" font-family="Times,serif" font-size="14.00">mulle&#45;atinit</text>
</g>
<!-- MulleObjCStandardFoundation&#45;startup&#45;&gt;mulle&#45;atinit -->
<g id="edge8" class="edge">
<title>MulleObjCStandardFoundation&#45;startup&#45;&gt;mulle&#45;atinit</title>
<path fill="none" stroke="black" d="M406.81,-215.97C353.32,-203.85 282.45,-187.79 232.81,-176.55"/>
<polygon fill="black" stroke="black" points="233.39,-173.09 222.86,-174.3 231.84,-179.92 233.39,-173.09"/>
</g>
<!-- MulleObjCStandardFoundation -->
<g id="node5" class="node">
<title>MulleObjCStandardFoundation</title>
<polygon fill="lightgrey" stroke="black" points="601.5,-180 362.5,-180 362.5,-144 601.5,-144 601.5,-180"/>
<text text-anchor="middle" x="482" y="-158.3" font-family="Times,serif" font-size="14.00">MulleObjCStandardFoundation</text>
</g>
<!-- MulleObjCStandardFoundation&#45;startup&#45;&gt;MulleObjCStandardFoundation -->
<g id="edge9" class="edge">
<title>MulleObjCStandardFoundation&#45;startup&#45;&gt;MulleObjCStandardFoundation</title>
<path fill="none" stroke="black" d="M482,-215.7C482,-207.98 482,-198.71 482,-190.11"/>
<polygon fill="black" stroke="black" points="485.5,-190.1 482,-180.1 478.5,-190.1 485.5,-190.1"/>
</g>
<!-- mulle&#45;atexit -->
<g id="node10" class="node">
<title>mulle&#45;atexit</title>
<polygon fill="lightgrey" stroke="black" points="722,-180 620,-180 620,-144 722,-144 722,-180"/>
<text text-anchor="middle" x="671" y="-158.3" font-family="Times,serif" font-size="14.00">mulle&#45;atexit</text>
</g>
<!-- MulleObjCStandardFoundation&#45;startup&#45;&gt;mulle&#45;atexit -->
<g id="edge7" class="edge">
<title>MulleObjCStandardFoundation&#45;startup&#45;&gt;mulle&#45;atexit</title>
<path fill="none" stroke="black" d="M528.23,-215.88C554.53,-206.14 587.64,-193.87 615.36,-183.61"/>
<polygon fill="black" stroke="black" points="616.75,-186.82 624.92,-180.07 614.32,-180.26 616.75,-186.82"/>
</g>
<!-- mulle&#45;dlfcn -->
<g id="node3" class="node">
<title>mulle&#45;dlfcn</title>
<polygon fill="lightgrey" stroke="black" points="98,-108 2,-108 2,-72 98,-72 98,-108"/>
<text text-anchor="middle" x="50" y="-86.3" font-family="Times,serif" font-size="14.00">mulle&#45;dlfcn</text>
</g>
<!-- mulle&#45;atinit&#45;&gt;mulle&#45;dlfcn -->
<g id="edge1" class="edge">
<title>mulle&#45;atinit&#45;&gt;mulle&#45;dlfcn</title>
<path fill="none" stroke="black" d="M142.91,-143.88C126.68,-134.64 106.46,-123.13 89.03,-113.21"/>
<polygon fill="black" stroke="black" points="90.63,-110.09 80.2,-108.19 87.16,-116.18 90.63,-110.09"/>
</g>
<!-- dlfcn&#45;win32 -->
<g id="node4" class="node">
<title>dlfcn&#45;win32</title>
<polygon fill="lightgrey" stroke="black" points="100,-36 0,-36 0,0 100,0 100,-36"/>
<text text-anchor="middle" x="50" y="-14.3" font-family="Times,serif" font-size="14.00">dlfcn&#45;win32</text>
</g>
<!-- mulle&#45;dlfcn&#45;&gt;dlfcn&#45;win32 -->
<g id="edge2" class="edge">
<title>mulle&#45;dlfcn&#45;&gt;dlfcn&#45;win32</title>
<path fill="none" stroke="black" d="M50,-71.7C50,-63.98 50,-54.71 50,-46.11"/>
<polygon fill="black" stroke="black" points="53.5,-46.1 50,-36.1 46.5,-46.1 53.5,-46.1"/>
</g>
<!-- MulleObjCContainerFoundation -->
<g id="node6" class="node">
<title>MulleObjCContainerFoundation</title>
<polygon fill="lightgrey" stroke="black" points="359.5,-108 116.5,-108 116.5,-72 359.5,-72 359.5,-108"/>
<text text-anchor="middle" x="238" y="-86.3" font-family="Times,serif" font-size="14.00">MulleObjCContainerFoundation</text>
</g>
<!-- MulleObjCStandardFoundation&#45;&gt;MulleObjCContainerFoundation -->
<g id="edge3" class="edge">
<title>MulleObjCStandardFoundation&#45;&gt;MulleObjCContainerFoundation</title>
<path fill="none" stroke="black" d="M422.62,-143.97C387.94,-134.01 343.99,-121.41 307.67,-110.99"/>
<polygon fill="black" stroke="black" points="308.22,-107.5 297.64,-108.11 306.29,-114.23 308.22,-107.5"/>
</g>
<!-- MulleObjCTimeFoundation -->
<g id="node7" class="node">
<title>MulleObjCTimeFoundation</title>
<polygon fill="lightgrey" stroke="black" points="586,-108 378,-108 378,-72 586,-72 586,-108"/>
<text text-anchor="middle" x="482" y="-86.3" font-family="Times,serif" font-size="14.00">MulleObjCTimeFoundation</text>
</g>
<!-- MulleObjCStandardFoundation&#45;&gt;MulleObjCTimeFoundation -->
<g id="edge4" class="edge">
<title>MulleObjCStandardFoundation&#45;&gt;MulleObjCTimeFoundation</title>
<path fill="none" stroke="black" d="M482,-143.7C482,-135.98 482,-126.71 482,-118.11"/>
<polygon fill="black" stroke="black" points="485.5,-118.1 482,-108.1 478.5,-118.1 485.5,-118.1"/>
</g>
<!-- MulleObjCValueFoundation -->
<g id="node8" class="node">
<title>MulleObjCValueFoundation</title>
<polygon fill="lightgrey" stroke="black" points="816,-108 604,-108 604,-72 816,-72 816,-108"/>
<text text-anchor="middle" x="710" y="-86.3" font-family="Times,serif" font-size="14.00">MulleObjCValueFoundation</text>
</g>
<!-- MulleObjCStandardFoundation&#45;&gt;MulleObjCValueFoundation -->
<g id="edge5" class="edge">
<title>MulleObjCStandardFoundation&#45;&gt;MulleObjCValueFoundation</title>
<path fill="none" stroke="black" d="M537.48,-143.97C569.76,-134.06 610.61,-121.51 644.46,-111.12"/>
<polygon fill="black" stroke="black" points="645.74,-114.39 654.27,-108.11 643.68,-107.7 645.74,-114.39"/>
</g>
<!-- mulle&#45;unicode -->
<g id="node9" class="node">
<title>mulle&#45;unicode</title>
<polygon fill="lightgrey" stroke="black" points="950,-108 834,-108 834,-72 950,-72 950,-108"/>
<text text-anchor="middle" x="892" y="-86.3" font-family="Times,serif" font-size="14.00">mulle&#45;unicode</text>
</g>
<!-- MulleObjCStandardFoundation&#45;&gt;mulle&#45;unicode -->
<g id="edge6" class="edge">
<title>MulleObjCStandardFoundation&#45;&gt;mulle&#45;unicode</title>
<path fill="none" stroke="black" d="M600.11,-143.97C676.67,-132.71 770.43,-118.47 823.84,-108.1"/>
<polygon fill="black" stroke="black" points="824.85,-111.47 833.97,-106.08 823.48,-104.61 824.85,-111.47"/>
</g>
<!-- MulleObjC -->
<g id="node11" class="node">
<title>MulleObjC</title>
<polygon fill="lightgrey" stroke="black" points="472,-36 380,-36 380,0 472,0 472,-36"/>
<text text-anchor="middle" x="426" y="-14.3" font-family="Times,serif" font-size="14.00">MulleObjC</text>
</g>
<!-- MulleObjCTimeFoundation&#45;&gt;MulleObjC -->
<g id="edge10" class="edge">
<title>MulleObjCTimeFoundation&#45;&gt;MulleObjC</title>
<path fill="none" stroke="black" d="M468.16,-71.7C461.51,-63.39 453.42,-53.28 446.11,-44.14"/>
<polygon fill="black" stroke="black" points="448.66,-41.73 439.68,-36.1 443.2,-46.1 448.66,-41.73"/>
</g>
<!-- mulle&#45;time -->
<g id="node12" class="node">
<title>mulle&#45;time</title>
<polygon fill="lightgrey" stroke="black" points="583.5,-36 490.5,-36 490.5,0 583.5,0 583.5,-36"/>
<text text-anchor="middle" x="537" y="-14.3" font-family="Times,serif" font-size="14.00">mulle&#45;time</text>
</g>
<!-- MulleObjCTimeFoundation&#45;&gt;mulle&#45;time -->
<g id="edge11" class="edge">
<title>MulleObjCTimeFoundation&#45;&gt;mulle&#45;time</title>
<path fill="none" stroke="black" d="M495.6,-71.7C502.12,-63.39 510.07,-53.28 517.25,-44.14"/>
<polygon fill="black" stroke="black" points="520.13,-46.13 523.56,-36.1 514.63,-41.81 520.13,-46.13"/>
</g>
</g>
</svg>
