<?xml version="1.0" encoding="UTF-8" standalone="no"?>
<!DOCTYPE svg PUBLIC "-//W3C//DTD SVG 1.1//EN"
 "http://www.w3.org/Graphics/SVG/1.1/DTD/svg11.dtd">
<!-- Generated by graphviz version 14.1.2 (0)
 -->
<!-- Title: sourcetree Pages: 1 -->
<svg width="868pt" height="260pt"
 viewBox="0.00 0.00 868.00 260.00" xmlns="http://www.w3.org/2000/svg" xmlns:xlink="http://www.w3.org/1999/xlink">
<g id="graph0" class="graph" transform="scale(1 1) rotate(0) translate(4 256)">
<title>sourcetree</title>
<polygon fill="white" stroke="none" points="-4,4 -4,-256 864.12,-256 864.12,4 -4,4"/>
<!-- MulleObjCStandardFoundation&#45;startup -->
<g id="node1" class="node">
<title>MulleObjCStandardFoundation&#45;startup</title>
<polygon fill="yellow" stroke="black" points="710.75,-252 415.75,-252 415.75,-216 710.75,-216 710.75,-252"/>
<text xml:space="preserve" text-anchor="middle" x="563.25" y="-229.32" font-family="Times,serif" font-size="14.00">MulleObjCStandardFoundation&#45;startup</text>
</g>
<!-- MulleObjCStandardFoundation -->
<g id="node7" class="node">
<title>MulleObjCStandardFoundation</title>
<g id="a_node7"><a xlink:href="https://github.com/MulleFoundation/MulleObjCStandardFoundation" xlink:title="MulleObjCStandardFoundation">
<polygon fill="lightgrey" stroke="black" points="580.25,-180 342.25,-180 342.25,-144 580.25,-144 580.25,-180"/>
<text xml:space="preserve" text-anchor="middle" x="461.25" y="-157.32" font-family="Times,serif" font-size="14.00">MulleObjCStandardFoundation</text>
</a>
</g>
</g>
<!-- MulleObjCStandardFoundation&#45;startup&#45;&gt;MulleObjCStandardFoundation -->
<g id="edge6" class="edge">
<title>MulleObjCStandardFoundation&#45;startup&#45;&gt;MulleObjCStandardFoundation</title>
<path fill="none" stroke="black" d="M537.77,-215.52C525.02,-206.76 509.4,-196.04 495.6,-186.58"/>
<polygon fill="black" stroke="black" points="497.87,-183.89 487.65,-181.12 493.91,-189.66 497.87,-183.89"/>
</g>
<!-- mulle&#45;stacktrace -->
<g id="node10" class="node">
<title>mulle&#45;stacktrace</title>
<g id="a_node10"><a xlink:href="https://github.com/mulle-core/mulle-stacktrace" xlink:title="mulle&#45;stacktrace">
<polygon fill="lightgrey" stroke="black" points="780.5,-180 646,-180 646,-144 780.5,-144 780.5,-180"/>
<text xml:space="preserve" text-anchor="middle" x="713.25" y="-157.32" font-family="Times,serif" font-size="14.00">mulle&#45;stacktrace</text>
</a>
</g>
</g>
<!-- MulleObjCStandardFoundation&#45;startup&#45;&gt;mulle&#45;stacktrace -->
<g id="edge7" class="edge">
<title>MulleObjCStandardFoundation&#45;startup&#45;&gt;mulle&#45;stacktrace</title>
<path fill="none" stroke="black" d="M600.71,-215.52C620.39,-206.34 644.7,-194.99 665.69,-185.2"/>
<polygon fill="black" stroke="black" points="667.05,-188.42 674.63,-181.02 664.09,-182.08 667.05,-188.42"/>
</g>
<!-- dlfcn&#45;win32 -->
<g id="node2" class="node">
<title>dlfcn&#45;win32</title>
<g id="a_node2"><a xlink:href="https://github.com/mulle-core/dlfcn-win32" xlink:title="dlfcn&#45;win32">
<polygon fill="lightgrey" stroke="black" points="755.88,-36 656.62,-36 656.62,0 755.88,0 755.88,-36"/>
<text xml:space="preserve" text-anchor="middle" x="706.25" y="-13.32" font-family="Times,serif" font-size="14.00">dlfcn&#45;win32</text>
</a>
</g>
</g>
<!-- mulle&#45;c11 -->
<g id="node3" class="node">
<title>mulle&#45;c11</title>
<g id="a_node3"><a xlink:href="https://github.com/mulle-c/mulle-c11" xlink:title="mulle&#45;c11">
<polygon fill="lightgrey" stroke="black" points="860.12,-36 774.38,-36 774.38,0 860.12,0 860.12,-36"/>
<text xml:space="preserve" text-anchor="middle" x="817.25" y="-13.32" font-family="Times,serif" font-size="14.00">mulle&#45;c11</text>
</a>
</g>
</g>
<!-- mulle&#45;dlfcn -->
<g id="node4" class="node">
<title>mulle&#45;dlfcn</title>
<g id="a_node4"><a xlink:href="https://github.com/mulle-core/mulle-dlfcn" xlink:title="mulle&#45;dlfcn">
<polygon fill="lightgrey" stroke="black" points="810,-108 714.5,-108 714.5,-72 810,-72 810,-108"/>
<text xml:space="preserve" text-anchor="middle" x="762.25" y="-85.33" font-family="Times,serif" font-size="14.00">mulle&#45;dlfcn</text>
</a>
</g>
</g>
<!-- mulle&#45;dlfcn&#45;&gt;dlfcn&#45;win32 -->
<g id="edge1" class="edge">
<title>mulle&#45;dlfcn&#45;&gt;dlfcn&#45;win32</title>
<path fill="none" stroke="black" d="M748.41,-71.7C741.96,-63.64 734.17,-53.89 727.04,-44.98"/>
<polygon fill="black" stroke="black" points="729.86,-42.91 720.88,-37.29 724.39,-47.28 729.86,-42.91"/>
</g>
<!-- mulle&#45;dlfcn&#45;&gt;mulle&#45;c11 -->
<g id="edge2" class="edge">
<title>mulle&#45;dlfcn&#45;&gt;mulle&#45;c11</title>
<path fill="none" stroke="black" d="M775.85,-71.7C782.17,-63.64 789.83,-53.89 796.84,-44.98"/>
<polygon fill="black" stroke="black" points="799.45,-47.32 802.88,-37.29 793.95,-43 799.45,-47.32"/>
</g>
<!-- MulleObjCContainerFoundation -->
<g id="node5" class="node">
<title>MulleObjCContainerFoundation</title>
<g id="a_node5"><a xlink:href="https://github.com/MulleFoundation/MulleObjCContainerFoundation" xlink:title="MulleObjCContainerFoundation">
<polygon fill="lightgrey" stroke="black" points="242.5,-108 0,-108 0,-72 242.5,-72 242.5,-108"/>
<text xml:space="preserve" text-anchor="middle" x="121.25" y="-85.33" font-family="Times,serif" font-size="14.00">MulleObjCContainerFoundation</text>
</a>
</g>
</g>
<!-- MulleObjC -->
<g id="node6" class="node">
<title>MulleObjC</title>
<g id="a_node6"><a xlink:href="https://github.com/mulle-objc/MulleObjC" xlink:title="MulleObjC">
<polygon fill="lightgrey" stroke="black" points="410.12,-36 318.38,-36 318.38,0 410.12,0 410.12,-36"/>
<text xml:space="preserve" text-anchor="middle" x="364.25" y="-13.32" font-family="Times,serif" font-size="14.00">MulleObjC</text>
</a>
</g>
</g>
<!-- MulleObjCStandardFoundation&#45;&gt;MulleObjCContainerFoundation -->
<g id="edge3" class="edge">
<title>MulleObjCStandardFoundation&#45;&gt;MulleObjCContainerFoundation</title>
<path fill="none" stroke="black" d="M376.33,-143.52C327.96,-133.56 267.22,-121.05 217.14,-110.74"/>
<polygon fill="black" stroke="black" points="217.95,-107.34 207.45,-108.75 216.54,-114.19 217.95,-107.34"/>
</g>
<!-- MulleObjCTimeFoundation -->
<g id="node8" class="node">
<title>MulleObjCTimeFoundation</title>
<g id="a_node8"><a xlink:href="https://github.com/MulleFoundation/MulleObjCTimeFoundation" xlink:title="MulleObjCTimeFoundation">
<polygon fill="lightgrey" stroke="black" points="467.88,-108 260.62,-108 260.62,-72 467.88,-72 467.88,-108"/>
<text xml:space="preserve" text-anchor="middle" x="364.25" y="-85.33" font-family="Times,serif" font-size="14.00">MulleObjCTimeFoundation</text>
</a>
</g>
</g>
<!-- MulleObjCStandardFoundation&#45;&gt;MulleObjCTimeFoundation -->
<g id="edge4" class="edge">
<title>MulleObjCStandardFoundation&#45;&gt;MulleObjCTimeFoundation</title>
<path fill="none" stroke="black" d="M437.27,-143.7C425.26,-135.03 410.53,-124.4 397.46,-114.96"/>
<polygon fill="black" stroke="black" points="399.67,-112.25 389.52,-109.23 395.58,-117.92 399.67,-112.25"/>
</g>
<!-- MulleObjCValueFoundation -->
<g id="node9" class="node">
<title>MulleObjCValueFoundation</title>
<g id="a_node9"><a xlink:href="https://github.com/MulleFoundation/MulleObjCValueFoundation" xlink:title="MulleObjCValueFoundation">
<polygon fill="lightgrey" stroke="black" points="696.75,-108 485.75,-108 485.75,-72 696.75,-72 696.75,-108"/>
<text xml:space="preserve" text-anchor="middle" x="591.25" y="-85.33" font-family="Times,serif" font-size="14.00">MulleObjCValueFoundation</text>
</a>
</g>
</g>
<!-- MulleObjCStandardFoundation&#45;&gt;MulleObjCValueFoundation -->
<g id="edge5" class="edge">
<title>MulleObjCStandardFoundation&#45;&gt;MulleObjCValueFoundation</title>
<path fill="none" stroke="black" d="M493.72,-143.52C510.52,-134.47 531.23,-123.32 549.23,-113.62"/>
<polygon fill="black" stroke="black" points="550.72,-116.8 557.86,-108.98 547.4,-110.64 550.72,-116.8"/>
</g>
<!-- MulleObjCTimeFoundation&#45;&gt;MulleObjC -->
<g id="edge8" class="edge">
<title>MulleObjCTimeFoundation&#45;&gt;MulleObjC</title>
<path fill="none" stroke="black" d="M364.25,-71.7C364.25,-64.41 364.25,-55.73 364.25,-47.54"/>
<polygon fill="black" stroke="black" points="367.75,-47.62 364.25,-37.62 360.75,-47.62 367.75,-47.62"/>
</g>
<!-- mulle&#45;stacktrace&#45;&gt;mulle&#45;dlfcn -->
<g id="edge9" class="edge">
<title>mulle&#45;stacktrace&#45;&gt;mulle&#45;dlfcn</title>
<path fill="none" stroke="black" d="M725.36,-143.7C730.94,-135.73 737.68,-126.1 743.87,-117.26"/>
<polygon fill="black" stroke="black" points="746.54,-119.54 749.41,-109.34 740.81,-115.53 746.54,-119.54"/>
</g>
</g>
</svg>
